<svg width="183" height="175" viewBox="0 0 183 175" fill="none" xmlns="http://www.w3.org/2000/svg">
<g clip-path="url(#clip0_1044_23242)">
<path d="M134.016 17.2656C134.018 16.8156 133.887 16.375 133.638 16C133.389 15.625 133.034 15.3326 132.619 15.16C132.203 14.9874 131.746 14.9426 131.304 15.0311C130.863 15.1196 130.458 15.3375 130.141 15.657C117.25 28.5937 118.564 27.4609 118.156 27.1664C109.038 19.3038 97.2775 15.1906 85.2463 15.6562C73.2151 16.1218 61.8078 21.1315 53.3244 29.6754C44.8409 38.2192 39.9121 49.6617 39.5318 61.6959C39.1515 73.7301 43.3479 85.461 51.275 94.5234L39.5164 106.282C39.1969 106.599 38.979 107.004 38.8905 107.445C38.8019 107.886 38.8468 108.344 39.0194 108.759C39.192 109.175 39.4844 109.53 39.8594 109.779C40.2344 110.027 40.675 110.159 41.125 110.156C47.4359 116.212 54.8999 120.937 63.0733 124.051C71.2467 127.164 79.9627 128.603 88.7031 128.281V146.406H75.1094C72.7058 146.406 70.4008 147.361 68.7012 149.061C67.0017 150.76 66.0469 153.065 66.0469 155.469V157.734C66.0469 158.335 66.2856 158.912 66.7105 159.336C67.1353 159.761 67.7116 160 68.3125 160H122.688C123.288 160 123.865 159.761 124.29 159.336C124.714 158.912 124.953 158.335 124.953 157.734V155.469C124.953 153.065 123.998 150.76 122.299 149.061C120.599 147.361 118.294 146.406 115.891 146.406H102.297V126.355C150.464 114.484 169.133 54.15 134.016 17.2656ZM74.1351 108.525C119.448 120.669 153.749 65.9992 121.713 30.5875L124.885 27.4156C133.702 37.3554 138.39 50.2878 137.988 63.5687C137.587 76.8495 132.128 89.4755 122.727 98.865C113.326 108.254 100.693 113.698 87.4119 114.083C74.1306 114.468 61.2039 109.765 51.275 100.935L54.4695 97.7406C60.0649 102.861 66.8099 106.559 74.1351 108.525ZM127.219 48.9844C128.64 53.1217 129.405 57.4564 129.484 61.8305C128.374 59.5648 123.39 54.8297 119.561 50.5023C122.185 50.4746 124.782 49.9599 127.219 48.9844ZM125.587 65.6594C129.507 66.7242 129.439 63.2351 129.303 65.3422C128.639 75.6889 124.235 85.4408 116.91 92.7789C117.567 79.1852 124.16 79.1852 112.968 71.7992C111.45 70.8023 108.641 68.9219 108.437 68.1062C109.614 65.4912 111.599 63.3231 114.101 61.9211C115.551 61.2641 122.144 64.8437 125.655 65.75L125.587 65.6594ZM100.167 21.7969C105.204 23.4873 109.883 26.0994 113.965 29.5C113.641 30.5551 113.525 31.6632 113.625 32.7625C113.874 36.8406 105.038 34.7109 98.3773 38.2453C98.6266 32.1961 102.455 26.668 100.167 21.7969ZM81.1586 34.0992C81.9742 35.5492 82.2461 36.1836 83.4242 36.5008C83.712 36.5781 84.0123 36.5979 84.3077 36.559C84.6032 36.5202 84.8881 36.4234 85.1461 36.2742C89.1109 35.7531 90.5383 43.7508 88.2273 44.2266C86.0798 44.6701 84.0541 45.5743 82.29 46.8769C80.5259 48.1794 79.0654 49.8492 78.0094 51.7711C75.5625 51.2726 72.0281 49.7547 69.3094 51.318C68.6408 51.7035 68.0817 52.2534 67.6852 52.9155C67.2887 53.5777 67.0679 54.3301 67.0437 55.1016C65.6844 54.0367 63.9172 52.6773 62.5125 51.4539C61.7195 50.7289 60.0656 48.1234 62.3312 39.4234C62.9656 37.1578 61.1984 34.3484 58.1625 30.157C60.7388 27.8904 63.5848 25.95 66.6359 24.3797C77.9641 27.8461 79.6859 29.2508 79.8219 29.3414C80.7055 30.8594 79.3914 31.0633 81.1586 34.0992ZM76.5141 67.2906C77.8715 67.282 79.2252 67.4341 80.5469 67.7437C85.0781 68.9445 92.5094 75.6281 91.875 77.8258C91.2406 80.0234 86.868 82.357 82.9937 84.2828C78.032 86.775 74.6789 88.157 71.2578 95.3391C70.3969 93.8664 69.3547 94.2742 74.6336 85.3703C77.5336 80.4539 77.9187 80.2047 75.5398 75.2883C75.0009 74.2757 74.5609 73.2134 74.2258 72.1164C75.0692 71.6581 75.7452 70.9438 76.1565 70.0765C76.5677 69.2092 76.6929 68.2337 76.5141 67.2906ZM44.7953 51.4312C46.6207 44.6695 50.0566 38.4506 54.8094 33.3062C56.0445 34.854 57.0656 36.561 57.8453 38.3812C54.243 52.2016 58.5703 54.2406 63.8266 58.3867C66.2619 60.0672 68.4637 62.0632 70.3742 64.3227C72.3453 67.7437 72.1414 68.0836 71.6203 68.3781C66.9531 71.0742 72.0961 77.5539 72.5492 79.7062C71.3258 82.9687 64.1664 92.0312 66.5906 96.1773C69.8758 101.864 70.057 102.838 71.7562 102.838C72.2677 102.856 72.7701 102.7 73.1815 102.395C73.5929 102.091 73.8891 101.656 74.0219 101.162C74.0219 101.162 76.2875 93.2773 80.8187 90.5812C86.5961 87.2508 94.8203 84.5773 96.3383 79.0039C98.0601 72.4789 86.0976 64.5492 81.7477 63.3711C77.3976 62.193 74.9508 63.2578 74.3844 62.0797C71.5297 57.118 71.4164 55.6227 71.507 55.2828C73.2289 54.2859 80.5695 59.0664 81.9289 54.0367C82.6274 52.6568 83.6346 51.4566 84.8724 50.5292C86.1102 49.6019 87.5451 48.9725 89.0656 48.6898C97.0859 47.0359 94.3445 31.4258 85.0555 31.7656C84.1719 30.2023 85.5539 30.2023 83.7641 27.0984C83.107 25.943 81.6117 24.5836 73.0703 21.7062C78.2337 19.9491 83.6889 19.2105 89.1336 19.5312C89.2622 19.9915 89.533 20.3994 89.9074 20.6964C90.2818 20.9935 90.7405 21.1645 91.218 21.1851C92.9129 21.2321 94.529 21.9109 95.7492 23.0883C96.116 23.7131 96.3353 24.4135 96.3902 25.1359C96.4452 25.8584 96.3344 26.5839 96.0664 27.257C94.4805 33.193 91.2633 43.1164 97.4031 43.1164C98.6201 43.0299 99.7961 42.6405 100.824 41.9836C105.559 39.2422 117.748 41.9836 118.02 33.3516C121.162 36.7315 123.74 40.5946 125.655 44.793C120.988 47.0586 115.551 44.793 114.101 48.2594C112.9 51.1367 116.661 54.2406 121.419 59.2703C117.884 57.775 114.622 56.5742 111.971 58.0695C111.337 58.432 105.582 61.8984 104.2 67.0187C102.523 73.2719 114.622 76.6703 114.962 79.3664C113.308 85.6195 111.812 92.3484 112.696 96.5625C80.207 121.824 34.3281 90.9664 44.8633 51.4312H44.7953ZM44.7953 107.415L47.9219 104.198C58.3911 113.908 72.1586 119.277 86.4375 119.219C136.281 119.219 161.203 59.882 128.057 24.0625L131.274 20.868C142.486 32.3873 148.714 47.8571 148.609 63.9319C148.505 80.0066 142.077 95.3943 130.716 106.767C119.356 118.14 103.975 124.584 87.9 124.705C71.8254 124.826 56.349 118.615 44.818 107.415H44.7953ZM120.422 155.469H70.5781C70.5781 154.267 71.0555 153.114 71.9053 152.265C72.7551 151.415 73.9076 150.938 75.1094 150.938H115.891C117.092 150.938 118.245 151.415 119.095 152.265C119.944 153.114 120.422 154.267 120.422 155.469ZM97.7656 146.406H93.2344V127.941C94.7523 127.783 96.2703 127.556 97.7656 127.284V146.406Z" fill="black"/>
</g>
<g style="mix-blend-mode:multiply">
<rect x="0.5" y="0.5" width="182" height="174" rx="87" fill="#E1F0C4"/>
<rect x="0.5" y="0.5" width="182" height="174" rx="87" stroke="#FAFAFA"/>
</g>
<defs>
<clipPath id="clip0_1044_23242">
<rect width="145" height="145" fill="white" transform="translate(23 15)"/>
</clipPath>
</defs>
</svg>
